<svg xmlns="http://www.w3.org/2000/svg" viewBox="0 0 1600 512" width="100" height="100" fill="#000000">
  <path d="M457.65 95.79c28.92 0 57.88.48 86.68 1.44 14.52.48 19.56 8.28 19.56 22.32v200.16c0 13.68-5.28 22.8-19.2 22.8-10.44 0-20.4-.72-30.24-1.68-36.6-3.36-73.92-8.4-110.4-13.2-13.2-1.68-20.88-7.68-20.88-20.16v-200.4c0-11.76 8.16-21.6 20.16-24.48 4.8-1.2 146.4-10.8 146.4-10.8v-50.4H457.65zm-25.2 45.6v242.16s-1.2 13.2 12.24 13.2c7.2 0 34.56.48 62.16 1.2 1.44 7.2 4.32 18 9.6 32.64 7.2 18 16.8 37.44 30 58.08 0 0 22.8-27.84 46.08-58.32 11.52-16.8 25.92-37.2 42-58.08-1.44.48-2.4.96-3.6 1.44-13.2 5.76-26.16 10.32-38.16 14.64-8.4 2.4-15.12 4.8-15.12 12.96v199.2c0 18 6 32.88 23.04 32.88 15.36 0 34.8-8.88 54-20.4l26.4-14.4s15.6-8.4 26.4-14.4c7.2-4.56 16.8-11.52 27.6-18-11.28-6.96-24.48-13.44-39.12-18-27.12-8.4-56.4-15.36-84.72-20.16-14.4-2.4-26.64-4.08-31.68-5.04 1.68-.72 3.36-1.68 5.04-2.64 29.28-19.92 56.4-37.2 80.88-53.52 22.8-15.6 43.2-31.44 57.6-47.76-1.2 1.44-2.4 2.88-3.6 4.32-2.4 2.4-5.04 4.56-8.4 6.72-25.92 19.92-71.52 57.36-127.68 87.84-9.36 7.2-19.44 15.12-30 23.52z" fill="#fff"/>
</svg>
